<?xml version="1.0" encoding="utf-8"?>
<!-- Generator: Adobe Illustrator 19.2.1, SVG Export Plug-In . SVG Version: 6.00 Build 0)  -->
<svg version="1.1" id="Layer_1" xmlns="http://www.w3.org/2000/svg" xmlns:xlink="http://www.w3.org/1999/xlink" x="0px" y="0px"
	 viewBox="0 0 150 40" style="enable-background:new 0 0 150 40;" xml:space="preserve">
<style type="text/css">
	.st0{clip-path:url(#SVGID_2_);}
	.st1{fill:url(#SVGID_3_);}
	.st2{fill:url(#SVGID_4_);}
	.st3{fill:url(#SVGID_5_);}
	.st4{fill:url(#SVGID_6_);}
	.st5{fill:#3D3E3F;}
</style>
<g>
	<g>
		<defs>
			<path id="SVGID_1_" d="M39,2.3c-0.1-0.5-0.5-0.8-1-0.8c0,0,0,0,0,0h-0.1H26.5c-2.5,0-5,0-6.9,0c-0.4,0-0.8,0-1.2,0
				c-2.6,0-5.2,0.1-7.6,1C3.4,5.3,2.4,15.6,8.4,20.4c3.4,2.7,8.4,2.9,12.1,0.7c1-0.6,1.8-1.3,2.9-1.8c2.7-1.1,6.2,0.4,7.2,3.1
				c1,2.7-0.6,6.1-3.3,7.2c-1.3,0.5-2.8,0.5-4.2,0.5l-10.2,0c0,0,0,0,0,0c0,0,0,0,0,0c-0.3,0-0.6-0.3-0.6-0.6c0-0.2,0.1-0.3,0.2-0.4
				h0c1.5-1.5,2.3-2.3,3.9-3.7c-1.3,0.2-2.5,0.1-3.8-0.1c-0.8-0.2-1.6-0.4-2.4-0.7c-2.2,2.2-3.9,4-6.2,6.2c-0.8,0.8-1.6,1.5-2.4,2.3
				h0c0,0,0,0,0,0c-0.3,0.3-0.4,0.6-0.3,1c0.1,0.4,0.5,0.7,0.9,0.8h0.2h0.1h22.2c2.3-0.2,4.6-0.6,6.5-1.8c1.8-1.1,3.2-2.8,4-4.8
				c1.6-4.1,0.4-9.2-3-12c-3.4-2.8-8.6-3.2-12.3-0.9c-0.9,0.5-1.7,1.2-2.6,1.6c-1.9,0.8-4.2,0.5-5.8-0.7c-1.6-1.3-2.4-3.5-1.9-5.5
				c0.4-1.8,1.7-3.3,3.4-4c1.3-0.5,2.9-0.4,4.2-0.4c1.3,0,10.6,0,10.6,0l0,0c0.3,0,0.5,0.3,0.5,0.5c0,0.1,0,0.2-0.1,0.3c0,0,0,0,0,0
				l0,0c0,0-3,2.9-4.4,4.2c1.7-0.2,3.4-0.1,5,0.3c0,0,0.5,0.1,1.3,0.4c0,0-0.3,0.3,8.6-8.7v0C38.8,3.2,39.1,2.8,39,2.3z"/>
		</defs>
		<clipPath id="SVGID_2_">
			<use xlink:href="#SVGID_1_"  style="overflow:visible;"/>
		</clipPath>
		<g class="st0">
			<linearGradient id="SVGID_3_" gradientUnits="userSpaceOnUse" x1="33.1" y1="31.3789" x2="6.9261" y2="5.205">
				<stop  offset="0" style="stop-color:#F26C22"/>
				<stop  offset="0.8879" style="stop-color:#ED2B7B"/>
			</linearGradient>
			<path class="st1" d="M39,2.3c-0.1-0.5-0.5-0.8-1-0.8c0,0,0,0,0,0h-0.1H26.5c-2.5,0-5,0-6.9,0c-0.4,0-0.8,0-1.2,0
				c-2.6,0-5.2,0.1-7.6,1C3.4,5.3,2.4,15.6,8.4,20.4c3.4,2.7,8.4,2.9,12.1,0.7c1-0.6,1.8-1.3,2.9-1.8c2.7-1.1,6.2,0.4,7.2,3.1
				c1,2.7-0.6,6.1-3.3,7.2c-1.3,0.5-2.8,0.5-4.2,0.5l-10.2,0c0,0,0,0,0,0c0,0,0,0,0,0c-0.3,0-0.6-0.3-0.6-0.6c0-0.2,0.1-0.3,0.2-0.4
				h0c1.5-1.5,2.3-2.3,3.9-3.7c-1.3,0.2-2.5,0.1-3.8-0.1c-0.8-0.2-1.6-0.4-2.4-0.7c-2.2,2.2-3.9,4-6.2,6.2c-0.8,0.8-1.6,1.5-2.4,2.3
				h0c0,0,0,0,0,0c-0.3,0.3-0.4,0.6-0.3,1c0.1,0.4,0.5,0.7,0.9,0.8h0.2h0.1h22.2c2.3-0.2,4.6-0.6,6.5-1.8c1.8-1.1,3.2-2.8,4-4.8
				c1.6-4.1,0.4-9.2-3-12c-3.4-2.8-8.6-3.2-12.3-0.9c-0.9,0.5-1.7,1.2-2.6,1.6c-1.9,0.8-4.2,0.5-5.8-0.7c-1.6-1.3-2.4-3.5-1.9-5.5
				c0.4-1.8,1.7-3.3,3.4-4c1.3-0.5,2.9-0.4,4.2-0.4c1.3,0,10.6,0,10.6,0l0,0c0.3,0,0.5,0.3,0.5,0.5c0,0.1,0,0.2-0.1,0.3c0,0,0,0,0,0
				l0,0c0,0-3,2.9-4.4,4.2c1.7-0.2,3.4-0.1,5,0.3c0,0,0.5,0.1,1.3,0.4c0,0-0.3,0.3,8.6-8.7v0C38.8,3.2,39.1,2.8,39,2.3z"/>
		</g>
		<g class="st0">
			<linearGradient id="SVGID_4_" gradientUnits="userSpaceOnUse" x1="12.7541" y1="6.9657" x2="12.7541" y2="6.9657">
				<stop  offset="0" style="stop-color:#5F231F"/>
				<stop  offset="5.678563e-02" style="stop-color:#692423;stop-opacity:0.8673"/>
				<stop  offset="0.1531" style="stop-color:#84282F;stop-opacity:0.6423"/>
				<stop  offset="0.2772" style="stop-color:#AF2E41;stop-opacity:0.3523"/>
				<stop  offset="0.423" style="stop-color:#EB365B;stop-opacity:1.170295e-02"/>
				<stop  offset="0.428" style="stop-color:#ED365C;stop-opacity:0"/>
			</linearGradient>
			<path class="st2" d="M12.8,7"/>
			<linearGradient id="SVGID_5_" gradientUnits="userSpaceOnUse" x1="26.3661" y1="13.25" x2="34.3904" y2="-0.6485">
				<stop  offset="1.401550e-02" style="stop-color:#5F231F"/>
				<stop  offset="7.301797e-02" style="stop-color:#692423;stop-opacity:0.8673"/>
				<stop  offset="0.1731" style="stop-color:#84282F;stop-opacity:0.6423"/>
				<stop  offset="0.3021" style="stop-color:#AF2E41;stop-opacity:0.3523"/>
				<stop  offset="0.4535" style="stop-color:#EB365B;stop-opacity:1.170295e-02"/>
				<stop  offset="0.4587" style="stop-color:#ED365C;stop-opacity:0"/>
			</linearGradient>
			<path class="st3" d="M27.6,6.5L27.6,6.5c0.3,0,0.6,0.3,0.6,0.6c0,0.1,0,0.2-0.1,0.3c0,0,0,0,0,0l0,0c0,0-3,2.9-4.4,4.2
				c1.7-0.2,3.4-0.1,5,0.3c0,0,0.5,0.1,1.3,0.4c0,0-0.3,0.3,8.6-8.7v0c0.3-0.3,0.6-0.7,0.5-1.2c-0.1-0.5-0.5-0.8-1-0.8c0,0,0,0,0,0
				h-0.1H26.5"/>
		</g>
		<g class="st0">
			<linearGradient id="SVGID_6_" gradientUnits="userSpaceOnUse" x1="12.2751" y1="23.2035" x2="4.5492" y2="36.5852">
				<stop  offset="7.342300e-03" style="stop-color:#5F231F"/>
				<stop  offset="6.668622e-02" style="stop-color:#642421;stop-opacity:0.8592"/>
				<stop  offset="0.1407" style="stop-color:#742628;stop-opacity:0.6836"/>
				<stop  offset="0.2224" style="stop-color:#8D2933;stop-opacity:0.4896"/>
				<stop  offset="0.3098" style="stop-color:#B12E42;stop-opacity:0.2823"/>
				<stop  offset="0.4006" style="stop-color:#DE3455;stop-opacity:6.660295e-02"/>
				<stop  offset="0.4287" style="stop-color:#ED365C;stop-opacity:0"/>
			</linearGradient>
			<path class="st4" d="M12.8,30.2C12.8,30.2,12.8,30.2,12.8,30.2C12.8,30.2,12.8,30.2,12.8,30.2c-0.3,0-0.6-0.3-0.6-0.6
				c0-0.2,0.1-0.3,0.2-0.4l0,0c1.5-1.5,2.3-2.3,3.9-3.7c-1.3,0.2-2.5,0.1-3.8-0.1c-0.8-0.2-1.6-0.4-2.4-0.7c-2.2,2.2-3.9,4-6.2,6.2
				c-0.8,0.8-1.6,1.5-2.4,2.3h0c0,0,0,0,0,0c-0.3,0.3-0.4,0.6-0.3,1c0.1,0.4,0.5,0.7,0.9,0.8h0.2h0.1"/>
		</g>
	</g>
	<g>
		<path class="st5" d="M48.6,20.2c0.1,0.8,0.5,1.4,1.1,1.8c0.6,0.4,1.4,0.6,2.4,0.6c0.8,0,1.5-0.2,2-0.5c0.5-0.3,0.7-0.8,0.7-1.4
			c0-0.8-0.6-1.4-1.9-1.7l-3-0.6c-2.5-0.6-3.8-1.8-3.8-3.8c0-1.3,0.5-2.4,1.5-3.2c1-0.8,2.3-1.2,4-1.2c1.6,0,2.9,0.4,3.9,1.1
			c1,0.7,1.7,1.7,2,2.9l-2.8,0.6c-0.1-0.7-0.5-1.3-1-1.7c-0.6-0.4-1.3-0.6-2.2-0.6c-0.8,0-1.4,0.2-1.8,0.5c-0.4,0.3-0.6,0.8-0.6,1.3
			c0,0.8,0.6,1.3,1.7,1.6l3.3,0.7c1.1,0.2,2,0.7,2.7,1.3c0.6,0.6,1,1.5,1,2.4c0,1.4-0.5,2.5-1.6,3.3c-1.1,0.8-2.5,1.2-4.3,1.2
			c-1.7,0-3.1-0.4-4.2-1.1c-1.1-0.7-1.8-1.7-2-3.1L48.6,20.2z"/>
		<path class="st5" d="M70.7,19.3l2.7,0.7c-0.4,1.5-1.2,2.7-2.5,3.6c-1.3,0.9-2.7,1.4-4.4,1.4c-2,0-3.8-0.7-5.2-2.1
			c-1.4-1.4-2.2-3.2-2.2-5.3c0-2.1,0.7-3.9,2.2-5.3c1.4-1.4,3.2-2.1,5.2-2.1c1.6,0,3,0.4,4.3,1.3c1.3,0.9,2.1,2.1,2.5,3.6l-2.8,0.8
			c-0.3-1-0.8-1.7-1.5-2.3c-0.7-0.5-1.6-0.8-2.5-0.8c-1.3,0-2.4,0.4-3.2,1.3c-0.9,0.9-1.3,2-1.3,3.4c0,1.4,0.4,2.5,1.3,3.4
			c0.8,0.9,1.9,1.3,3.2,1.3C68.6,22.3,70,21.3,70.7,19.3z"/>
		<path class="st5" d="M85.2,10.6L85,13.4c-0.2,0-0.4,0-0.8,0c-1.7,0-3,0.6-3.9,1.7c-0.9,1.1-1.4,2.7-1.4,4.6v4.9h-2.9v-14h2.9v3
			c1.3-2.1,3.1-3.2,5.3-3.2C84.6,10.4,84.9,10.5,85.2,10.6z"/>
		<path class="st5" d="M90.1,5.1c0.4,0.4,0.5,0.8,0.5,1.3c0,0.5-0.2,1-0.5,1.3c-0.3,0.3-0.8,0.5-1.3,0.5c-0.5,0-1-0.2-1.4-0.5
			c-0.4-0.3-0.5-0.8-0.5-1.3c0-0.5,0.2-0.9,0.5-1.3c0.4-0.4,0.8-0.5,1.4-0.5C89.3,4.6,89.7,4.8,90.1,5.1z M87.3,24.6v-14h2.9v14
			H87.3z"/>
		<path class="st5" d="M107.1,12.3c1.4,1.4,2.1,3.2,2.1,5.3c0,2.2-0.7,3.9-2,5.3c-1.4,1.4-3,2.1-4.9,2.1c-2.1,0-3.8-0.7-5.1-2v1.6
			h-2.9V4.3h2.9v7.9c1.3-1.3,3-2,5.1-2C104.1,10.2,105.7,10.9,107.1,12.3z M105,21.1c0.9-0.9,1.3-2,1.3-3.5c0-1.4-0.4-2.6-1.3-3.5
			c-0.9-0.9-2-1.3-3.3-1.3c-1.2,0-2.3,0.4-3.2,1.3c-0.9,0.9-1.4,2-1.4,3.5c0,1.4,0.5,2.6,1.4,3.5c0.9,0.9,2,1.3,3.2,1.3
			C103,22.4,104.1,22,105,21.1z"/>
		<path class="st5" d="M124.7,12.3c1.4,1.4,2.1,3.2,2.1,5.3c0,2.2-0.7,3.9-2,5.3c-1.4,1.4-3,2.1-4.9,2.1c-2.1,0-3.8-0.7-5.1-2v1.6
			h-2.9V4.3h2.9v7.9c1.3-1.3,3-2,5.1-2C121.7,10.2,123.3,10.9,124.7,12.3z M122.6,21.1c0.9-0.9,1.3-2,1.3-3.5c0-1.4-0.4-2.6-1.3-3.5
			c-0.9-0.9-2-1.3-3.3-1.3c-1.2,0-2.3,0.4-3.2,1.3c-0.9,0.9-1.4,2-1.4,3.5c0,1.4,0.5,2.6,1.4,3.5c0.9,0.9,2,1.3,3.2,1.3
			C120.6,22.4,121.7,22,122.6,21.1z"/>
		<path class="st5" d="M129.3,24.6V4.3h2.9v20.3H129.3z"/>
		<path class="st5" d="M149,18.3h-11.3c0.1,1.3,0.6,2.3,1.4,3c0.8,0.8,1.7,1.1,2.8,1.1c1.9,0,3.3-0.8,4.1-2.4l2.6,0.6
			c-0.6,1.4-1.4,2.5-2.6,3.3c-1.2,0.7-2.6,1.1-4.1,1.1c-2,0-3.6-0.7-5-2.1c-1.4-1.4-2.1-3.1-2.1-5.3c0-2.2,0.7-4,2.1-5.3
			c1.4-1.4,3.1-2.1,5.1-2.1c1.9,0,3.5,0.7,4.9,2c1.3,1.3,2.1,3,2.1,5.1V18.3z M139.3,13.7c-0.8,0.6-1.3,1.4-1.6,2.5h8.2
			c-0.2-1.1-0.7-2-1.4-2.5c-0.7-0.6-1.6-0.9-2.6-0.9C141,12.8,140.1,13.1,139.3,13.7z"/>
	</g>
	<g>
		<g>
			<path class="st5" d="M121.4,30.6v7.1h4v0.7h-4.7v-7.8H121.4z"/>
			<path class="st5" d="M129.3,30.6v7.8h-0.7v-7.8H129.3z"/>
			<path class="st5" d="M136,38.4l-3.6-7.8h0.8l3.1,6.7l3.1-6.7h0.8l-3.6,7.8H136z"/>
			<path class="st5" d="M147.9,30.6v0.7H144v2.8h3.9v0.7H144v2.8h3.9v0.7h-4.6v-7.8H147.9z"/>
		</g>
	</g>
</g>
</svg>
